<svg xmlns="http://www.w3.org/2000/svg" id="fidelis_logo_green" width="176.446" height="64.229" viewBox="0 0 176.446 64.229"><path id="Path_2" data-name="Path 2" d="M-177.451,184.88a7.678,7.678,0,0,1,.285-2.76,3.51,3.51,0,0,1,3.629-2.5,3.589,3.589,0,0,1,3.554,2.265.116.116,0,0,1-.076.179l-1.634.735a.142.142,0,0,1-.209-.075,1.682,1.682,0,0,0-1.619-1.154,1.5,1.5,0,0,0-1.529,1.124,6.989,6.989,0,0,0-.165,2.19,6.989,6.989,0,0,0,.165,2.19,1.5,1.5,0,0,0,1.529,1.123,1.682,1.682,0,0,0,1.619-1.154.141.141,0,0,1,.209-.074l1.634.734a.117.117,0,0,1,.076.18,3.588,3.588,0,0,1-3.554,2.263,3.508,3.508,0,0,1-3.629-2.5,7.669,7.669,0,0,1-.285-2.759" transform="translate(265.701 -128.448)" fill="#77bc43"></path><path id="Path_3" data-name="Path 3" d="M-170.665,191.848a.142.142,0,0,1-.15-.15v-1.469a.142.142,0,0,1,.15-.15h.314a.925.925,0,0,0,.991-.749l.2-.54-2.7-6.748c-.029-.09.031-.15.12-.15h1.92a.19.19,0,0,1,.18.15l1.454,4.2h.03l1.349-4.2a.19.19,0,0,1,.18-.15h1.86c.105,0,.15.06.12.15l-2.939,7.722c-.615,1.6-1.259,2.085-2.564,2.085Z" transform="translate(267.733 -127.619)" fill="#77bc43"></path><path id="Path_4" data-name="Path 4" d="M-163.96,189.259h-.015v.524a.142.142,0,0,1-.15.15h-1.8a.142.142,0,0,1-.15-.15v-9.9a.141.141,0,0,1,.15-.149h1.8a.142.142,0,0,1,.15.149v3.464h.015a2.141,2.141,0,0,1,1.9-.839,2.387,2.387,0,0,1,2.46,1.74,6.328,6.328,0,0,1,.255,2.053,6.4,6.4,0,0,1-.255,2.056,2.4,2.4,0,0,1-2.46,1.738,2.141,2.141,0,0,1-1.9-.839m2.353-1.71a3.926,3.926,0,0,0,.135-1.246,3.921,3.921,0,0,0-.135-1.244,1.068,1.068,0,0,0-1.124-.779,1.062,1.062,0,0,0-1.111.779,3.973,3.973,0,0,0-.134,1.244,3.978,3.978,0,0,0,.134,1.246,1.076,1.076,0,0,0,1.111.779,1.082,1.082,0,0,0,1.124-.779" transform="translate(269.846 -128.403)" fill="#77bc43"></path><path id="Path_5" data-name="Path 5" d="M-160.358,187.289a5.238,5.238,0,0,1-.255-1.726,5.3,5.3,0,0,1,.24-1.738,3.037,3.037,0,0,1,3.119-2.055,3.031,3.031,0,0,1,3.134,2.04,6.944,6.944,0,0,1,.24,2.233.146.146,0,0,1-.165.15h-4.393a.08.08,0,0,0-.09.09,1.607,1.607,0,0,0,.09.405,1.426,1.426,0,0,0,1.5.959,2.338,2.338,0,0,0,1.665-.644c.075-.061.15-.076.21,0l.989.929a.135.135,0,0,1,.015.21,4.143,4.143,0,0,1-3.089,1.214,3.079,3.079,0,0,1-3.209-2.068m4.318-2.49a.08.08,0,0,0,.09-.09,1.8,1.8,0,0,0-.075-.54,1.2,1.2,0,0,0-1.214-.794,1.2,1.2,0,0,0-1.214.794,1.8,1.8,0,0,0-.075.54.08.08,0,0,0,.09.09Z" transform="translate(271.836 -127.663)" fill="#77bc43"></path><path id="Path_6" data-name="Path 6" d="M-154.737,189.192a.141.141,0,0,1-.15-.15v-6.958a.141.141,0,0,1,.15-.149h1.8a.141.141,0,0,1,.15.149v.615h.015a2.07,2.07,0,0,1,1.89-.928,2.013,2.013,0,0,1,1.274.434.146.146,0,0,1,.045.209l-.84,1.529c-.059.075-.12.075-.209.03a1.781,1.781,0,0,0-1.051-.33c-.779.033-1.124.6-1.124,1.576v3.823a.141.141,0,0,1-.15.15Z" transform="translate(273.922 -127.662)" fill="#77bc43"></path><path id="Path_7" data-name="Path 7" d="M-151.016,188.233a.145.145,0,0,1,0-.21l.974-1.094a.145.145,0,0,1,.21,0,3.793,3.793,0,0,0,2.22.8c.764,0,1.124-.287,1.124-.69,0-.345-.2-.555-1.036-.63l-.809-.09c-1.529-.149-2.37-.914-2.37-2.218,0-1.426,1.1-2.325,2.985-2.325a4.935,4.935,0,0,1,2.939.9.163.163,0,0,1,.014.226l-.839,1.034a.147.147,0,0,1-.21.03,3.794,3.794,0,0,0-1.963-.585c-.615,0-.915.24-.915.6,0,.33.18.524,1,.6l.8.089c1.71.165,2.414.991,2.414,2.2-.015,1.484-1.169,2.489-3.238,2.489a4.936,4.936,0,0,1-3.3-1.124" transform="translate(275.316 -127.663)" fill="#77bc43"></path><path id="Path_8" data-name="Path 8" d="M-145.488,187.289a5.238,5.238,0,0,1-.255-1.726,5.305,5.305,0,0,1,.24-1.738,3.037,3.037,0,0,1,3.119-2.055,3.031,3.031,0,0,1,3.134,2.04,6.944,6.944,0,0,1,.24,2.233.146.146,0,0,1-.165.15h-4.393a.08.08,0,0,0-.09.09,1.608,1.608,0,0,0,.09.405,1.426,1.426,0,0,0,1.5.959A2.338,2.338,0,0,0-140.4,187c.074-.061.15-.076.21,0l.989.929a.135.135,0,0,1,.015.21,4.143,4.143,0,0,1-3.089,1.214,3.079,3.079,0,0,1-3.209-2.068m4.318-2.49a.08.08,0,0,0,.09-.09,1.8,1.8,0,0,0-.075-.54,1.2,1.2,0,0,0-1.214-.794,1.2,1.2,0,0,0-1.214.794,1.8,1.8,0,0,0-.075.54.08.08,0,0,0,.09.09Z" transform="translate(277.254 -127.663)" fill="#77bc43"></path><path id="Path_9" data-name="Path 9" d="M-140,187.3a5.307,5.307,0,0,1-.225-1.74,5.313,5.313,0,0,1,.225-1.74,3.029,3.029,0,0,1,3.134-2.053,3.212,3.212,0,0,1,2.744,1.364.147.147,0,0,1-.03.21l-1.3.854a.15.15,0,0,1-.225-.03,1.283,1.283,0,0,0-1.154-.63,1.076,1.076,0,0,0-1.124.78,3.73,3.73,0,0,0-.135,1.244,3.745,3.745,0,0,0,.135,1.246,1.076,1.076,0,0,0,1.124.779,1.283,1.283,0,0,0,1.154-.63.15.15,0,0,1,.225-.03l1.3.854a.147.147,0,0,1,.03.21,3.213,3.213,0,0,1-2.744,1.366A3.03,3.03,0,0,1-140,187.3" transform="translate(279.264 -127.662)" fill="#77bc43"></path><path id="Path_10" data-name="Path 10" d="M-130.591,189.148a.141.141,0,0,1-.15-.15v-.524h-.015a2.169,2.169,0,0,1-1.86.839,2.388,2.388,0,0,1-2.444-2.7V182.04a.141.141,0,0,1,.15-.149h1.8a.141.141,0,0,1,.15.149v4.169c0,.78.375,1.319,1.109,1.319s1.111-.525,1.111-1.319V182.04a.141.141,0,0,1,.15-.149h1.8a.14.14,0,0,1,.149.149V189a.14.14,0,0,1-.149.15Z" transform="translate(281.146 -127.619)" fill="#77bc43"></path><path id="Path_11" data-name="Path 11" d="M-129.1,189.192a.141.141,0,0,1-.15-.15v-6.958a.141.141,0,0,1,.15-.149h1.8a.141.141,0,0,1,.15.149v.615h.015a2.07,2.07,0,0,1,1.89-.928,2.013,2.013,0,0,1,1.274.434.146.146,0,0,1,.045.209l-.84,1.529c-.06.075-.12.075-.21.03a1.775,1.775,0,0,0-1.049-.33c-.779.033-1.124.6-1.124,1.576v3.823a.141.141,0,0,1-.15.15Z" transform="translate(283.264 -127.662)" fill="#77bc43"></path><path id="Path_12" data-name="Path 12" d="M-124.523,181.521a.141.141,0,0,1-.15-.149v-1.486a.142.142,0,0,1,.15-.15h1.8a.142.142,0,0,1,.15.15v1.486a.141.141,0,0,1-.15.149Zm0,8.413a.141.141,0,0,1-.15-.15v-6.958a.141.141,0,0,1,.15-.149h1.8a.141.141,0,0,1,.15.149v6.958a.141.141,0,0,1-.15.15Z" transform="translate(284.931 -128.404)" fill="#77bc43"></path><path id="Path_13" data-name="Path 13" d="M-119.311,189.823c-1.68,0-2.31-.749-2.31-2.414v-3.3a.079.079,0,0,0-.089-.09h-.45a.142.142,0,0,1-.15-.15v-1.244a.142.142,0,0,1,.15-.15h.45a.079.079,0,0,0,.089-.09v-1.95a.142.142,0,0,1,.15-.15h1.785a.142.142,0,0,1,.15.15v1.95a.08.08,0,0,0,.09.09h.93a.141.141,0,0,1,.149.15v1.244a.141.141,0,0,1-.149.15h-.93a.08.08,0,0,0-.09.09v3.209c0,.54.18.72.66.72h.36a.14.14,0,0,1,.149.149v1.484a.141.141,0,0,1-.149.15Z" transform="translate(285.792 -128.203)" fill="#77bc43"></path><path id="Path_14" data-name="Path 14" d="M-117.844,191.848a.142.142,0,0,1-.15-.15v-1.469a.142.142,0,0,1,.15-.15h.314a.925.925,0,0,0,.991-.749l.2-.54-2.7-6.748c-.029-.09.031-.15.12-.15h1.92a.19.19,0,0,1,.18.15l1.454,4.2h.03l1.349-4.2a.19.19,0,0,1,.18-.15h1.86c.105,0,.15.06.12.15l-2.939,7.722c-.615,1.6-1.259,2.085-2.564,2.085Z" transform="translate(286.978 -127.619)" fill="#77bc43"></path><path id="Path_15" data-name="Path 15" d="M-242.134,167.77v9.364a4,4,0,0,0,4,4h4.547a4,4,0,0,0,4-4V164.77a1,1,0,0,0-1-1h-7.549a4,4,0,0,0-4,4" transform="translate(242.134 -134.221)" fill="#77bc43"></path><path id="Path_16" data-name="Path 16" d="M-219.973,166.292a4,4,0,0,0,4-4v-1.442a4,4,0,0,0-4-4h-11.968a1,1,0,0,0-1,1v7.444a1,1,0,0,0,1,1Z" transform="translate(245.485 -136.741)" fill="#77bc43"></path><path id="Path_17" data-name="Path 17" d="M-238.634,159.033h8.048a1,1,0,0,0,1-1v-6.168a1,1,0,0,0-1-1h-8.048a3.5,3.5,0,0,0-3.5,3.5v1.167a3.5,3.5,0,0,0,3.5,3.5" transform="translate(242.134 -138.922)" fill="#77bc43"></path><path id="Path_18" data-name="Path 18" d="M-216.706,142.127l-15.234,0a1,1,0,0,0-1,1l-.005,9.926a1,1,0,0,0,1,1H-216.7a3.992,3.992,0,0,0,3.992-3.992v-3.943a4,4,0,0,0-4-3.991" transform="translate(245.483 -142.107)" fill="#77bc43"></path><path id="Path_19" data-name="Path 19" d="M-137.193,151.032h-4.118a3,3,0,0,0-3,3v28.805a3,3,0,0,0,3,3h4.118a3,3,0,0,0,3-3V154.031a3,3,0,0,0-3-3" transform="translate(277.776 -138.862)" fill="#77bc43"></path><path id="Rectangle_13" data-name="Rectangle 13" d="M1.649,0H7.968A1.648,1.648,0,0,1,9.616,1.648V8.315A1.649,1.649,0,0,1,7.967,9.964H1.649A1.649,1.649,0,0,1,0,8.315V1.649A1.649,1.649,0,0,1,1.649,0Z" transform="translate(133.717 0.021)" fill="#77bc43"></path><path id="Path_20" data-name="Path 20" d="M-178.679,142.112H-182.8a3,3,0,0,0-3,3v12.353c-1.853-2.283-4.722-3.438-8.541-3.438-5.8,0-9.773,2.815-11.5,8.141a33.189,33.189,0,0,0-1.179,10.047,25.754,25.754,0,0,0,1.18,8.926c1.727,5.247,5.811,8.138,11.5,8.138,3.847,0,6.732-1.173,8.582-3.49.247,1.549,1.592,3.3,3.208,3.3h5.868a1,1,0,0,0,1-1V145.112a3,3,0,0,0-3-3m-7.246,35.316h0a5.2,5.2,0,0,1-5.321,3.745,5.185,5.185,0,0,1-5.389-3.745,17.976,17.976,0,0,1-.629-5.777,17.976,17.976,0,0,1,.629-5.777,5.152,5.152,0,0,1,5.389-3.745,5.106,5.106,0,0,1,5.321,3.745,17.963,17.963,0,0,1,.63,5.777,17.947,17.947,0,0,1-.63,5.775" transform="translate(254.928 -142.112)" fill="#77bc43"></path><path id="Path_21" data-name="Path 21" d="M-151.737,179.187l-4.509-4.234c-.16-.2-.607-.6-1.327-.026a10.482,10.482,0,0,1-7.453,2.886c-3.433,0-5.786-1.5-6.633-4.232a7.09,7.09,0,0,1-.4-1.767c0-.136.025-.162.161-.162h17.728a3.219,3.219,0,0,0,2.4-.937,3.584,3.584,0,0,0,.971-2.345,27.089,27.089,0,0,0-1.083-7.966c-1.992-6.045-7.309-9.512-14.592-9.512s-12.564,3.493-14.523,9.58a24.7,24.7,0,0,0-1.111,8.046,24.256,24.256,0,0,0,1.18,7.976c1.974,6.133,7.418,9.65,14.936,9.65,5.824,0,10.915-2,14.324-5.636a.877.877,0,0,0,.27-.674.894.894,0,0,0-.344-.645m-20.82-14.585a8.518,8.518,0,0,1,.353-2.545,5.734,5.734,0,0,1,5.8-3.819,5.732,5.732,0,0,1,5.8,3.812,8.513,8.513,0,0,1,.356,2.551.608.608,0,0,1-.662.662h-10.99a.608.608,0,0,1-.662-.662" transform="translate(264.006 -138.914)" fill="#77bc43"></path><path id="Path_22" data-name="Path 22" d="M-142.871,180.984h-2.06c-1.423,0-1.954-1.224-1.954-3.223V145.126a3,3,0,0,0-3-3H-154a3,3,0,0,0-3,3v33.665a10.552,10.552,0,0,0,10.552,10.552h1.579a3,3,0,0,0,3-3v-4.36a1,1,0,0,0-1-1" transform="translate(273.152 -142.107)" fill="#77bc43"></path><path id="Path_23" data-name="Path 23" d="M-115.9,164.113l-3.647-.413c-4.04-.367-4.374-1.39-4.374-2.5,0-1.587,1.437-2.5,3.94-2.5a17.238,17.238,0,0,1,8.87,2.643.915.915,0,0,0,1.284-.194l3.846-4.741a1.006,1.006,0,0,0-.112-1.386,22.964,22.964,0,0,0-13.612-4.171c-8.715,0-13.919,4.073-13.919,10.9,0,6.015,3.935,9.713,11.074,10.413l3.714.413c3.774.337,4.512,1.221,4.512,2.636,0,1.849-1.786,2.909-4.9,2.909a17.13,17.13,0,0,1-10.009-3.586.911.911,0,0,0-1.3.03l-4.455,5a.908.908,0,0,0,0,1.314l.012.012c2.239,1.947,7.2,5.213,15.275,5.213,9.231,0,15.012-4.464,15.084-11.652,0-6.142-3.8-9.623-11.279-10.344" transform="translate(281.068 -138.926)" fill="#77bc43"></path><path id="Path_24" data-name="Path 24" d="M-209.565,151.032h-4.118a3,3,0,0,0-3,3v28.805a3,3,0,0,0,3,3h4.118a3,3,0,0,0,3-3V154.031a3,3,0,0,0-3-3" transform="translate(251.407 -138.862)" fill="#77bc43"></path><path id="Rectangle_14" data-name="Rectangle 14" d="M1.649,0H7.968A1.648,1.648,0,0,1,9.616,1.648V8.315A1.649,1.649,0,0,1,7.967,9.964H1.649A1.649,1.649,0,0,1,0,8.315V1.649A1.649,1.649,0,0,1,1.649,0Z" transform="translate(34.974 0.021)" fill="#77bc43"></path><path id="Path_25" data-name="Path 25" d="M-114.1,152.013a2.864,2.864,0,0,1-1.1-.207,2.7,2.7,0,0,1-.879-.584,2.659,2.659,0,0,1-.583-.879,2.834,2.834,0,0,1-.209-1.1,2.791,2.791,0,0,1,.209-1.079,2.645,2.645,0,0,1,.583-.879,2.7,2.7,0,0,1,.879-.584,2.839,2.839,0,0,1,1.1-.209,2.837,2.837,0,0,1,1.094.209,2.7,2.7,0,0,1,.879.584,2.665,2.665,0,0,1,.583.879,2.791,2.791,0,0,1,.209,1.079,2.834,2.834,0,0,1-.209,1.1,2.68,2.68,0,0,1-.583.879,2.7,2.7,0,0,1-.879.584,2.862,2.862,0,0,1-1.094.207m0-.576a2.261,2.261,0,0,0,.855-.158,1.942,1.942,0,0,0,.685-.454,2.051,2.051,0,0,0,.446-.7,2.369,2.369,0,0,0,.158-.88,2.3,2.3,0,0,0-.158-.87,2.067,2.067,0,0,0-.446-.692,1.957,1.957,0,0,0-.685-.453,2.26,2.26,0,0,0-.855-.158,2.275,2.275,0,0,0-.858.158,1.964,1.964,0,0,0-.684.453,2.067,2.067,0,0,0-.446.692,2.3,2.3,0,0,0-.16.87,2.369,2.369,0,0,0,.16.88,2.051,2.051,0,0,0,.446.7,1.949,1.949,0,0,0,.684.454,2.275,2.275,0,0,0,.858.158m-1.081-.677a.089.089,0,0,1-.1-.1v-2.852a.089.089,0,0,1,.1-.1h1.267a1.267,1.267,0,0,1,.849.259.9.9,0,0,1,.3.72.869.869,0,0,1-.561.864l.576,1.109c.029.067,0,.1-.072.1h-.648a.151.151,0,0,1-.145-.1l-.488-1.008h-.318c-.038,0-.057.025-.057.072v.936a.09.09,0,0,1-.1.1Zm1.224-1.757c.269,0,.4-.105.4-.317s-.135-.317-.4-.317h-.461a.051.051,0,0,0-.057.057v.518a.051.051,0,0,0,.057.057Z" transform="translate(287.777 -140.514)" fill="#77bc43"></path></svg>